<svg xmlns="http://www.w3.org/2000/svg" viewBox="0 0 512 512" xmlns:v="https://vecta.io/nano"><circle cx="256" cy="256" r="256" fill="#3a99d7"/><path d="M511.176 278.419C499.802 409.304 390.017 512 256.165 512c-3.132 0-6.264 0-9.396-.165L125.61 390.676l219.735-278.089 165.831 165.832z" fill="#2682bf"/><path d="M136.984 106.982h194.678a19.14 19.14 0 0 1 19.122 19.122v114.071 27.034 95.938 8.242a23.22 23.22 0 0 1-23.243 23.243H136.984a19.14 19.14 0 0 1-19.122-19.122V126.104c0-10.55 8.573-19.122 19.122-19.122z" fill="#ffd630"/><path d="M130.222 118.191h208.195V383.26H130.222z" fill="#f7f7f8"/><g fill="#e84f4f"><circle cx="369.737" cy="332.492" r="65.612"/><path d="M147.204 139.951h26.869v30.99h-26.869v-30.99zm0 166.491h26.869v30.99h-26.869v-30.99zm0-55.552h26.869v30.99h-26.869v-30.99zm0-55.552h26.869v30.99h-26.869v-30.99z"/></g><path d="M186.766 151.325h91.817v8.078h-91.817v-8.078h0zm0 166.491h91.817v8.078h-91.817v-8.078h0zm0-55.552h91.817v8.078h-91.817v-8.078h0zm0-55.552h91.817v8.078h-91.817v-8.078h0z" fill="#999"/><circle cx="369.737" cy="332.492" r="55.392" fill="#ffd630"/><path d="M322.926 334.3l17.639-1.978 19.122 16.979s9.232-38.573 52.42-47.64c-21.1 11.374-34.122 33.958-42.859 65.113-2.143 7.912-7.912 5.769-9.726 3.461-2.967-3.792-22.748-26.375-36.595-36.101v.166z" fill="#fff"/><path d="M215.943 90.828h2.967a8.86 8.86 0 0 1-1.318-4.615v-9.891c0-5.44 4.946-9.89 11.044-9.89h11.374c6.099 0 11.044 4.451 11.044 9.89v9.89c0 1.649-.494 3.132-1.319 4.615h2.967c20.276 0 36.759 15.001 36.759 33.133h0-110.442 0c0-18.297 16.649-33.133 36.759-33.133h.165v.001z" fill="#e84f4f"/><path d="M234.406 66.431h5.769c6.099 0 11.044 4.451 11.044 9.89v9.89c0 1.649-.494 3.132-1.319 4.615h2.967c20.276 0 36.759 15.001 36.759 33.133h0-55.222l.002-57.528h0z" fill="#c94545"/></svg>