<svg xmlns="http://www.w3.org/2000/svg" height="800" width="800" viewBox="0 0 512 512" xmlns:v="https://vecta.io/nano"><path d="M260.741 66.37c-5.689 0-9.481-3.793-9.481-9.481V18.963c0-5.689 3.793-9.481 9.481-9.481s9.481 3.793 9.481 9.481v37.926c0 5.689-3.792 9.481-9.481 9.481zM488.296 256H450.37c-5.689 0-9.481-3.793-9.481-9.481s3.793-9.481 9.481-9.481h37.926c5.689 0 9.481 3.793 9.481 9.481S493.985 256 488.296 256zm-417.185 0H33.185c-5.689 0-9.481-3.793-9.481-9.481s3.793-9.481 9.481-9.481h37.926c5.689 0 9.481 3.793 9.481 9.481S76.8 256 71.111 256zM394.43 122.311c-2.844 0-4.741-.948-6.637-2.844-3.793-3.793-3.793-9.481 0-13.274l26.548-26.548c3.793-3.793 9.481-3.793 13.274 0s3.793 9.481 0 13.274l-26.548 26.548c-.948 1.896-3.793 2.844-6.637 2.844zM99.556 417.185c-2.844 0-4.741-.948-6.637-2.844-3.793-3.793-3.793-9.481 0-13.274l26.548-26.548c3.793-3.793 9.481-3.793 13.274 0s3.793 9.481 0 13.274l-26.548 26.548c-1.897 1.896-3.793 2.844-6.637 2.844zm322.37 0c-2.844 0-4.741-.948-6.637-2.844l-26.548-26.548c-3.793-3.793-3.793-9.481 0-13.274s9.481-3.793 13.274 0l26.548 26.548c3.793 3.793 3.793 9.482 0 13.274-1.896 1.896-4.741 2.844-6.637 2.844zM127.052 122.311c-2.844 0-4.741-.948-6.637-2.844L92.919 91.97c-3.793-3.793-3.793-9.481 0-13.274s9.481-3.793 13.274 0l26.548 26.548c3.793 3.793 3.793 9.481 0 13.274-.948 2.845-3.793 3.793-5.689 3.793z" fill="#e2e3e5"/><path d="M251.259 56.889c-5.689 0-9.481-3.793-9.481-9.481V9.481c0-5.689 3.793-9.481 9.481-9.481s9.481 3.793 9.481 9.481v37.926c.001 5.689-3.792 9.482-9.481 9.482zm227.556 189.63h-37.926c-5.689 0-9.481-3.793-9.481-9.481s3.793-9.481 9.481-9.481h37.926c5.689 0 9.481 3.793 9.481 9.481s-3.792 9.481-9.481 9.481zm-417.185 0H23.704c-5.689 0-9.481-3.793-9.481-9.481s3.793-9.481 9.481-9.481H61.63c5.689 0 9.481 3.793 9.481 9.481s-3.792 9.481-9.481 9.481zM384.948 112.83c-2.844 0-4.741-.948-6.637-2.844-3.793-3.793-3.793-9.481 0-13.274l26.548-26.548c3.793-3.793 9.482-3.793 13.274 0s3.793 9.481 0 13.274l-26.548 26.548c-.948 1.895-3.792 2.844-6.637 2.844zM90.074 407.704c-2.844 0-4.741-.948-6.637-2.844-3.793-3.793-3.793-9.482 0-13.274l26.548-26.548c3.793-3.793 9.481-3.793 13.274 0s3.793 9.481 0 13.274L96.711 404.86c-1.896 1.896-3.792 2.844-6.637 2.844zm322.37 0c-2.844 0-4.741-.948-6.637-2.844l-26.548-26.548c-3.793-3.793-3.793-9.481 0-13.274s9.481-3.793 13.274 0l26.548 26.548c3.793 3.793 3.793 9.481 0 13.274-1.896 1.896-4.74 2.844-6.637 2.844zM117.57 112.83c-2.844 0-4.741-.948-6.637-2.844L83.437 82.489c-3.793-3.793-3.793-9.481 0-13.274s9.481-3.793 13.274 0l26.548 26.548c3.793 3.793 3.793 9.481 0 13.274-.948 2.844-3.792 3.793-5.689 3.793z" fill="#b6b6b6"/><path d="M251.259 85.333c-83.437 0-151.704 68.267-151.704 151.704 0 67.319 43.615 124.207 104.296 144.119v92.918h18.963v28.444h56.889v-28.444h18.963v-92.918c60.682-19.911 104.296-76.8 104.296-144.119.001-83.437-68.266-151.704-151.703-151.704" fill="#ccc"/><path d="M222.815 85.333h-1.896c0 .948-.948 1.896-1.896 2.844-5.689 7.585-14.222 9.481-23.704 11.378-7.585.948-17.067 1.896-22.756 6.637.948 2.844 0 5.689-2.844 8.533-16.119 12.326-34.133 24.652-43.615 42.667-1.896 2.844-4.741 4.741-7.585 4.741 1.896 2.844 2.844 6.637.948 10.43-5.689 12.326-10.43 23.704-19.911 31.289 1.896 11.378 2.844 22.756 3.793 35.081v8.533c8.533 21.807 16.119 44.563 18.015 67.319 10.43 12.326 20.859 24.652 32.237 36.03 7.585 4.741 14.222 11.378 20.859 18.015 10.43 4.741 19.911 10.43 24.652 21.807 4.741 10.43 3.793 22.756 1.896 36.03 3.793 1.896 7.585 5.689 6.637 11.378-1.896 9.481-3.793 18.963-4.741 28.444 0 1.896-.948 5.689-.948 10.43h.948c15.17 0 24.652 14.222 29.393 26.548h18.963v-28.444h18.963v-92.919c60.681-19.911 104.296-76.8 104.296-144.119 0-84.385-68.267-152.652-151.704-152.652" fill="#e2e3e5"/><path d="M251.259 85.333c4.741 0 9.481 0 14.222.948C188.681 92.919 128 158.341 128 237.037c0 67.319 43.615 124.207 104.296 144.119v92.918h18.963v28.444h-28.444v-28.444h-18.963v-92.918c-60.681-19.911-104.296-76.8-104.296-144.119 0-83.437 68.266-151.704 151.703-151.704" fill="#fff"/><g fill="#b6b6b6"><path d="M279.704 512h-56.889c-5.689 0-9.481-3.793-9.481-9.481v-18.963h-9.481c-5.689 0-9.481-3.793-9.481-9.482v-86.281c-62.578-23.704-104.296-83.437-104.296-150.756 0-89.126 72.059-161.185 161.185-161.185s161.185 72.059 161.185 161.185c0 67.319-41.719 127.052-104.296 150.756v86.281c0 5.689-3.793 9.482-9.482 9.482h-9.481v18.963c-.002 5.688-3.794 9.481-9.483 9.481zm-47.408-18.963h37.926v-18.963c0-5.689 3.793-9.481 9.481-9.481h9.481v-83.437c0-3.793 2.844-7.585 6.637-9.482 58.785-18.963 97.659-73.007 97.659-134.637 0-78.696-63.526-142.222-142.222-142.222s-142.222 63.526-142.222 142.222c0 61.63 38.874 115.674 97.659 134.637 3.793.948 6.637 4.741 6.637 9.482v83.437h9.481c5.689 0 9.481 3.793 9.481 9.481v18.963z"/><path d="M298.667 417.185h-94.815c-5.689 0-9.481-3.793-9.481-9.481s3.793-9.481 9.481-9.481h94.815c5.689 0 9.482 3.793 9.482 9.481s-3.793 9.481-9.482 9.481zM146.963 246.519c-5.689 0-9.481-3.793-9.481-9.481 0-62.578 51.2-113.778 113.778-113.778 5.689 0 9.481 3.793 9.481 9.481s-3.793 9.481-9.481 9.481c-52.148 0-94.815 42.667-94.815 94.815-.001 5.689-3.793 9.482-9.482 9.482z"/></g></svg>