<svg xmlns="http://www.w3.org/2000/svg" viewBox="0 0 508 508" xmlns:v="https://vecta.io/nano"><style><![CDATA[.B{fill:#ced5e0}.C{fill:#324a5e}]]></style><circle cx="254" cy="254" r="254" fill="#90dfaa"/><path d="M388 410.7H120a3.01 3.01 0 0 1-3-3V100.4a3.01 3.01 0 0 1 3-3h268a3.01 3.01 0 0 1 3 3v307.3a3.01 3.01 0 0 1-3 3z" class="B"/><path d="M117 109.4v289.2c0 6.7 5.4 12 12 12h214v-36a12.04 12.04 0 0 1 12-12h36V109.4c0-6.7-5.4-12-12-12H129c-6.7-.1-12 5.3-12 12z" fill="#fff"/><path d="M343,410.7l48-48h-36c-6.6,0-12,5.4-12,12V410.7z" fill="#e6e9ee"/><path d="M129.3 110.8h16.1v7.5h-16.1z" class="B"/><path d="M132.3 82.3h10.1v32.3h-10.1z" class="C"/><path d="M162.6 110.8h16.1v7.5h-16.1z" class="B"/><path d="M165.6 82.3h10.1v32.3h-10.1z" class="C"/><path d="M196 110.8h16.1v7.5H196z" class="B"/><path d="M198.9 82.3H209v32.3h-10.1z" class="C"/><path d="M229.3 110.8h16.1v7.5h-16.1z" class="B"/><path d="M232.3 82.3h10.1v32.3h-10.1z" class="C"/><path d="M262.6 110.8h16.1v7.5h-16.1z" class="B"/><path d="M265.6 82.3h10.1v32.3h-10.1z" class="C"/><path d="M296 110.8h16.1v7.5H296z" class="B"/><path d="M298.9 82.3H309v32.3h-10.1z" class="C"/><path d="M329.3 110.8h16.1v7.5h-16.1z" class="B"/><path d="M332.3 82.3h10.1v32.3h-10.1z" class="C"/><path d="M362.6 110.8h16.1v7.5h-16.1z" class="B"/><path d="M365.6 82.3h10.1v32.3h-10.1z" class="C"/><path d="M177 214.4h-31.1c-4.1 0-7.5-3.4-7.5-7.5v-31.1c0-4.1 3.4-7.5 7.5-7.5H177c4.1 0 7.5 3.4 7.5 7.5V207c-.1 4.1-3.4 7.4-7.5 7.4zm-30.6-7.9h30.2v-30.2h-30.2v30.2zm30.6 82.2h-31.1c-4.1 0-7.5-3.4-7.5-7.5v-31.1c0-4.1 3.4-7.5 7.5-7.5H177c4.1 0 7.5 3.4 7.5 7.5v31.1c-.1 4.1-3.4 7.5-7.5 7.5zm-30.6-8h30.2v-30.2h-30.2v30.2zm30.6 82.2h-31.1c-4.1 0-7.5-3.4-7.5-7.5v-31.1c0-4.1 3.4-7.5 7.5-7.5H177c4.1 0 7.5 3.4 7.5 7.5v31.1c-.1 4.1-3.4 7.5-7.5 7.5zm-30.6-7.9h30.2v-30.2h-30.2V355z" fill="#e6e9ee"/><path d="M159.5 198.3c.7.9 1.7 1.5 2.9 1.6h.3c1.1 0 2.1-.4 2.8-1.2l41.1-41.1c1.6-1.6 1.6-4.1 0-5.6-1.6-1.6-4.1-1.6-5.6 0l-37.9 37.9-5.6-7.7c-1.3-1.8-3.8-2.2-5.5-.9-1.8 1.3-2.1 3.8-.9 5.5l8.4 11.5zm41.5 27.9l-37.9 37.9-5.6-7.7c-1.3-1.8-3.8-2.2-5.5-.9-1.8 1.3-2.1 3.8-.9 5.5l8.4 11.4c.7.9 1.7 1.5 2.9 1.6h.3c1.1 0 2.1-.4 2.8-1.2l41.1-41.1c1.6-1.6 1.6-4.1 0-5.6-1.5-1.4-4-1.4-5.6.1zm0 74.3l-37.9 37.9-5.6-7.7c-1.3-1.8-3.8-2.2-5.5-.9-1.8 1.3-2.1 3.8-.9 5.5l8.4 11.4c.7.9 1.7 1.5 2.9 1.6h.3c1.1 0 2.1-.4 2.8-1.2l41.1-41.1c1.6-1.6 1.6-4.1 0-5.6-1.5-1.5-4-1.5-5.6.1z" fill="#ff7058"/><path d="M216.6 175.4h116.9v9.1H216.6zm0 23h70.6v9.1h-70.6zm0 51.2h116.9v9.1H216.6zm0 23h70.6v9.1h-70.6zm0 51.2h116.9v9.1H216.6zm0 23h70.6v9.1h-70.6z" fill="#84dbff"/></svg>