<svg xmlns="http://www.w3.org/2000/svg" fill="#000000" height="800" width="800" viewBox="0 0 191.667 191.667" xmlns:v="https://vecta.io/nano"><path d="M95.833 0C42.991 0 0 42.99 0 95.833s42.991 95.834 95.833 95.834 95.833-42.991 95.833-95.834S148.676 0 95.833 0zm55.029 79.646l-60.207 60.207a13.46 13.46 0 0 1-19.166 0l-30.685-30.685a13.46 13.46 0 0 1-3.97-9.583c0-3.621 1.41-7.024 3.97-9.584a13.46 13.46 0 0 1 9.583-3.97c3.62 0 7.024 1.41 9.583 3.971l21.101 21.1 50.623-50.623a13.46 13.46 0 0 1 19.166 0 13.57 13.57 0 0 1 .002 19.167z"/></svg>