<svg xmlns="http://www.w3.org/2000/svg" width="110" height="20" fill="none" xmlns:v="https://vecta.io/nano"><g clip-path="url(#A)"><path d="M18 10a8 8 0 0 1-8 8 8 8 0 0 1-8-8 8 8 0 0 1 8-8 8.01 8.01 0 0 1 2.2.31L13.77.74A9.82 9.82 0 0 0 10 0a10 10 0 0 0-7.071 2.929 10 10 0 0 0 0 14.142A10 10 0 0 0 10 20a10 10 0 0 0 10-10M5.91 8.08L4.5 9.5 9 14 19 4l-1.41-1.42L9 11.17 5.91 8.08z" fill="#ff9200"/><path d="M27.216 4.8h2.288V16h-2.288V4.8zm1.392 1.936V4.8h2.224c.885 0 1.637.144 2.256.432.629.288 1.109.699 1.44 1.232s.496 1.168.496 1.904c0 .725-.165 1.36-.496 1.904-.331.533-.811.944-1.44 1.232-.619.288-1.371.432-2.256.432h-2.224V10h2.224c.608 0 1.088-.139 1.44-.416s.528-.683.528-1.216c0-.544-.176-.949-.528-1.216-.352-.277-.832-.416-1.44-.416h-2.224zm9.714 1.904V16H36.29V8.64h2.032zm2.16 2.16c-.139-.128-.283-.224-.432-.288-.139-.075-.315-.112-.528-.112-.256 0-.475.069-.656.208s-.32.336-.416.592c-.085.245-.128.544-.128.896l-.576-.576c0-.587.112-1.104.336-1.552.224-.459.517-.821.88-1.088.363-.277.736-.416 1.12-.416.267 0 .517.048.752.144a1.36 1.36 0 0 1 .592.432l-.944 1.76zm1.946-5.008a1.05 1.05 0 0 1 .368-.832 1.26 1.26 0 0 1 .88-.336c.341 0 .629.112.864.336a1.05 1.05 0 0 1 .368.832 1.08 1.08 0 0 1-.368.832c-.235.224-.523.336-.864.336a1.26 1.26 0 0 1-.88-.336 1.08 1.08 0 0 1-.368-.832zm.224 2.848h2.016V16h-2.016V8.64zm3.72 3.68c0-.768.176-1.44.528-2.016a3.76 3.76 0 0 1 1.456-1.344c.619-.32 1.317-.48 2.096-.48s1.472.16 2.08.48c.619.32 1.104.768 1.456 1.344.363.576.544 1.248.544 2.016 0 .757-.181 1.429-.544 2.016-.352.576-.837 1.024-1.456 1.344-.608.32-1.301.48-2.08.48s-1.477-.16-2.096-.48a3.76 3.76 0 0 1-1.456-1.344c-.352-.587-.528-1.259-.528-2.016zm2.112 0a2.31 2.31 0 0 0 .256 1.104 2.07 2.07 0 0 0 .72.736c.299.171.629.256.992.256s.693-.085.992-.256c.299-.181.533-.427.704-.736a2.2 2.2 0 0 0 .272-1.104 2.2 2.2 0 0 0-.272-1.104c-.171-.32-.405-.565-.704-.736s-.629-.256-.992-.256-.693.085-.992.256a1.91 1.91 0 0 0-.72.736 2.31 2.31 0 0 0-.256 1.104zm9.635-3.68V16h-2.032V8.64h2.032zm2.16 2.16a1.53 1.53 0 0 0-.432-.288c-.139-.075-.315-.112-.528-.112-.256 0-.475.069-.656.208s-.32.336-.416.592c-.085.245-.128.544-.128.896l-.576-.576c0-.587.112-1.104.336-1.552.224-.459.517-.821.88-1.088.363-.277.736-.416 1.12-.416.267 0 .517.048.752.144a1.36 1.36 0 0 1 .592.432l-.944 1.76zm1.946-5.008a1.05 1.05 0 0 1 .368-.832 1.26 1.26 0 0 1 .88-.336c.341 0 .629.112.864.336a1.05 1.05 0 0 1 .368.832 1.08 1.08 0 0 1-.368.832c-.235.224-.523.336-.864.336a1.26 1.26 0 0 1-.88-.336 1.08 1.08 0 0 1-.368-.832zm.224 2.848h2.016V16h-2.016V8.64zm3.272 0h4.544v1.744h-4.544V8.64zm1.264-2.56h2V16h-2V6.08zm5.855 7.632c0 .213.053.4.16.56.107.149.251.267.432.352.192.075.4.112.624.112.32 0 .608-.064.864-.192.256-.139.464-.331.624-.576.16-.256.24-.56.24-.912l.256.96c0 .469-.133.864-.4 1.184-.256.32-.592.56-1.008.72-.405.16-.832.24-1.28.24a3.03 3.03 0 0 1-1.28-.272c-.395-.181-.715-.443-.96-.784-.235-.352-.352-.779-.352-1.28 0-.715.251-1.28.752-1.696s1.211-.624 2.128-.624c.469 0 .88.048 1.232.144.363.096.667.213.912.352s.421.272.528.4v.96a3.09 3.09 0 0 0-.976-.48 3.84 3.84 0 0 0-1.12-.16c-.32 0-.581.043-.784.128-.203.075-.352.187-.448.336-.096.139-.144.315-.144.528zm-.8-2.992l-.768-1.408c.384-.203.853-.395 1.408-.576.555-.192 1.173-.288 1.856-.288.629 0 1.189.091 1.68.272s.875.448 1.152.8c.277.341.416.763.416 1.264V16h-2v-4.784c0-.203-.032-.373-.096-.512-.064-.149-.165-.272-.304-.368-.128-.096-.283-.165-.464-.208s-.384-.064-.608-.064c-.341 0-.667.037-.976.112s-.576.165-.8.272a3.67 3.67 0 0 0-.496.272zm8.04 2.736c.309.288.597.523.864.704.267.171.517.299.752.384.245.085.475.128.688.128.277 0 .491-.059.64-.176a.64.64 0 0 0 .224-.512.65.65 0 0 0-.192-.48c-.117-.139-.293-.261-.528-.368a8.64 8.64 0 0 0-.896-.336 8.29 8.29 0 0 1-.992-.448 2.54 2.54 0 0 1-.8-.704c-.203-.299-.304-.677-.304-1.136 0-.437.117-.805.352-1.104.235-.309.549-.539.944-.688a3.63 3.63 0 0 1 1.344-.24 4.12 4.12 0 0 1 1.168.16c.363.107.699.251 1.008.432.309.171.581.373.816.608l-.912 1.28c-.267-.288-.587-.523-.96-.704-.363-.181-.72-.272-1.072-.272-.235 0-.421.048-.56.144-.128.085-.192.219-.192.4 0 .16.064.304.192.432.139.117.331.224.576.32l.864.352c.395.149.757.32 1.088.512.341.181.613.411.816.688s.304.64.304 1.088c0 .736-.24 1.312-.72 1.728-.48.405-1.141.608-1.984.608-.523 0-1.003-.069-1.44-.208-.427-.139-.816-.32-1.168-.544a7.31 7.31 0 0 1-.928-.752l1.008-1.296zm6.615-9.936h2V16h-2V3.52zm4.704 5.12h2.48l-3.168 3.04L94.199 16h-2.464l-3.504-4.32 3.168-3.04zm7.129 7.52c-.8 0-1.499-.16-2.096-.48a3.48 3.48 0 0 1-1.392-1.328c-.32-.576-.48-1.253-.48-2.032 0-.789.16-1.467.48-2.032a3.34 3.34 0 0 1 1.392-1.328c.597-.32 1.301-.48 2.112-.48s1.499.149 2.064.448c.576.288 1.014.715 1.312 1.28.299.555.448 1.227.448 2.016 0 .096-.005.197-.016.304 0 .107-.005.192-.016.256h-6.592v-1.28h4.784l-.56.736c.043-.064.08-.149.112-.256.043-.117.064-.213.064-.288 0-.363-.069-.672-.208-.928-.128-.256-.315-.459-.56-.608a1.63 1.63 0 0 0-.864-.224c-.405 0-.747.091-1.024.272-.267.171-.475.432-.624.784-.139.341-.213.768-.224 1.28 0 .491.069.907.208 1.248.149.341.368.603.656.784s.635.272 1.04.272c.459 0 .848-.085 1.168-.256.331-.181.603-.448.816-.8l1.808.56c-.384.693-.896 1.216-1.536 1.568-.629.341-1.386.512-2.272.512zm7.435-7.52V16h-2.032V8.64h2.032zm2.16 2.16a1.51 1.51 0 0 0-.432-.288c-.138-.075-.314-.112-.528-.112a1.05 1.05 0 0 0-.656.208c-.181.139-.32.336-.416.592-.085.245-.128.544-.128.896l-.576-.576c0-.587.112-1.104.336-1.552.224-.459.518-.821.88-1.088.363-.277.736-.416 1.12-.416.267 0 .518.048.752.144.246.096.443.24.592.432l-.944 1.76z" fill="#fff"/></g><defs><clipPath id="A"><path fill="#fff" d="M0 0h110v20H0z"/></clipPath></defs></svg>