<?xml version="1.0" encoding="iso-8859-1"?>
<!-- Uploaded to: SVG Repo, www.svgrepo.com, Generator: SVG Repo Mixer Tools -->
<!DOCTYPE svg PUBLIC "-//W3C//DTD SVG 1.1//EN" "http://www.w3.org/Graphics/SVG/1.1/DTD/svg11.dtd">
<svg fill="#000000" version="1.1" id="Capa_1" xmlns="http://www.w3.org/2000/svg" xmlns:xlink="http://www.w3.org/1999/xlink" 
	 width="800px" height="800px" viewBox="0 0 76.435 76.435"
	 xml:space="preserve">
<g>
	<g>
		<g>
			<g>
				<path d="M13.407,20.521h11.946c0.464,0,0.843-0.362,0.843-0.803c0-0.443-0.378-0.804-0.843-0.804H13.407
					c-0.462,0-0.843,0.361-0.843,0.804C12.564,20.161,12.945,20.521,13.407,20.521z"/>
				<path d="M24.117,17.683c0.557-2.947,2.661-6.979,2.661-6.979s-8.873-4.043-10.934-2.17c-0.827,0.757,1.212,3.64,0.456,4.476
					c-0.724,0.798-4.314,0-4.314,0s1.382,2.507,2.03,4.674H24.117z"/>
				<path d="M22.436,44.801c-0.47-0.316-1.348-0.656-2.645-1.021v-4.085c0.771,0.027,1.333,0.321,1.689,0.889
					c0.187,0.309,0.301,0.676,0.341,1.098h1.467c-0.03-0.944-0.341-1.706-0.934-2.285c-0.593-0.58-1.449-0.906-2.563-0.983v-1.1
					h-0.8v1.115c-1.122,0.012-1.995,0.36-2.621,1.043c-0.626,0.682-0.934,1.448-0.934,2.294c0,0.954,0.29,1.702,0.869,2.236
					c0.577,0.535,1.476,0.924,2.686,1.149v4.573c-0.943-0.08-1.596-0.436-1.944-1.067c-0.198-0.349-0.32-0.91-0.359-1.677h-1.489
					c0,0.963,0.156,1.725,0.477,2.286c0.582,1.047,1.688,1.621,3.314,1.729v1.629h0.8v-1.629c1.012-0.109,1.785-0.34,2.322-0.688
					c0.965-0.625,1.453-1.684,1.453-3.169C23.566,46.105,23.187,45.33,22.436,44.801z M18.995,43.619
					c-0.631-0.123-1.124-0.34-1.498-0.652c-0.369-0.316-0.553-0.748-0.553-1.305c0-0.458,0.156-0.896,0.47-1.313
					c0.312-0.425,0.838-0.644,1.579-0.671L18.995,43.619L18.995,43.619z M21.767,48.716c-0.359,0.649-1.023,1.006-1.977,1.044
					v-4.413c0.699,0.191,1.197,0.392,1.493,0.602c0.517,0.367,0.771,0.896,0.771,1.602C22.055,47.99,21.961,48.38,21.767,48.716z"/>
			</g>
			<path d="M26.535,52.896c0-0.511,0.023-1.038,0.058-1.583c-1.77,2.008-4.331,3.301-7.213,3.301c-5.323,0-9.646-4.318-9.646-9.646
				c0-5.326,4.324-9.646,9.646-9.646c4.305,0,7.906,2.837,9.147,6.728c1.107-3.394,2.663-6.958,4.65-10.439
				c-1.995-3.375-4.472-6.758-7.454-9.896c-0.123,0.021-0.243,0.038-0.368,0.038H13.409c-0.212,0-0.415-0.042-0.611-0.1
				C4.499,29.551,0,41.409,0,48.556C0,57.719,9.355,65.15,19.382,65.15c3.606,0,7.117-0.977,10.144-2.628
				C27.638,59.653,26.535,56.373,26.535,52.896z"/>
		</g>
		<g>
			<path d="M45.32,18.5h14.656c0.57,0,1.028-0.444,1.028-0.989c0-0.544-0.458-0.985-1.028-0.985H45.32
				c-0.57,0-1.035,0.441-1.035,0.985C44.285,18.057,44.75,18.5,45.32,18.5z"/>
			<path d="M58.459,15.017c0.685-3.615,3.265-8.565,3.265-8.565s-10.89-4.963-13.417-2.663c-1.024,0.929,1.489,4.466,0.557,5.492
				c-0.881,0.982-5.295,0-5.295,0s1.704,3.077,2.496,5.737H58.459z"/>
			<g>
				<path d="M60.43,19.962c-0.146,0.025-0.301,0.044-0.451,0.044H45.325c-0.263,0-0.511-0.051-0.751-0.124
					c-10.183,9.693-15.702,24.238-15.702,33.012c0,11.243,11.479,20.36,23.779,20.36c12.305,0,23.783-9.117,23.783-20.36
					C76.428,44.019,70.75,30.826,60.43,19.962z M52.651,60.333c-6.537,0-11.834-5.299-11.834-11.839
					c0-6.535,5.302-11.833,11.834-11.833c6.531,0,11.835,5.3,11.835,11.833C64.486,55.034,59.185,60.333,52.651,60.333z"/>
				<path d="M56.391,48.291c-0.568-0.39-1.649-0.81-3.244-1.257v-5.009c0.942,0.034,1.636,0.396,2.071,1.09
					c0.235,0.379,0.374,0.828,0.427,1.349h1.8c-0.039-1.164-0.422-2.102-1.147-2.811c-0.729-0.707-1.781-1.111-3.15-1.207v-1.348
					h-0.976v1.368c-1.385,0.014-2.452,0.438-3.217,1.277c-0.767,0.84-1.149,1.777-1.149,2.822c0,1.168,0.354,2.08,1.062,2.739
					c0.719,0.659,1.81,1.129,3.304,1.412v5.606c-1.164-0.098-1.958-0.531-2.384-1.307c-0.244-0.436-0.389-1.12-0.443-2.058H47.52
					c0,1.18,0.2,2.112,0.588,2.811c0.717,1.284,2.071,1.989,4.065,2.116v1.999h0.98v-1.999c1.241-0.137,2.19-0.417,2.852-0.841
					c1.187-0.77,1.784-2.069,1.784-3.892C57.784,49.895,57.318,48.939,56.391,48.291z M52.173,46.841
					c-0.767-0.148-1.383-0.42-1.829-0.804c-0.457-0.385-0.685-0.917-0.685-1.597c0-0.563,0.196-1.106,0.579-1.617
					s1.026-0.789,1.935-0.821V46.841L52.173,46.841z M55.576,53.093c-0.438,0.803-1.25,1.229-2.427,1.286v-5.417
					c0.857,0.237,1.474,0.481,1.834,0.741c0.634,0.444,0.944,1.1,0.944,1.957C55.928,52.201,55.813,52.678,55.576,53.093z"/>
			</g>
		</g>
	</g>
</g>
</svg>